<svg width="16" height="16" viewBox="0 0 16 16" fill="none" xmlns="http://www.w3.org/2000/svg">
<path fill-rule="evenodd" clip-rule="evenodd" d="M14.25 5V10C14.25 10.4828 14.0981 10.9301 13.8392 11.2965C13.4772 11.8088 12.907 12.1637 12.2511 12.2362L12.2504 14.5989L8.72708 12.25H4C3.37868 12.25 2.81618 11.9982 2.40901 11.591C2.00184 11.1838 1.75 10.6213 1.75 10V5C1.75 4.37868 2.00184 3.81618 2.40901 3.40901C2.81618 3.00184 3.37868 2.75 4 2.75H12C12.6213 2.75 13.1838 3.00184 13.591 3.40901C13.9982 3.81618 14.25 4.37868 14.25 5Z" stroke="#666666" stroke-width="1.5"/>
<path d="M6.57144 5.3335L4.57144 7.3335L6.57144 9.3335" stroke="#666666" stroke-linecap="square"/>
<path d="M9.57144 9.3335L11.5714 7.3335L9.57144 5.3335" stroke="#666666" stroke-linecap="square"/>
</svg>
